<svg width="32" height="32" viewBox="0 0 32 32" fill="none" xmlns="http://www.w3.org/2000/svg">
<path d="M15.9987 19.4514C20.331 19.4514 23.843 15.9394 23.843 11.6071C23.843 7.27474 20.331 3.7627 15.9987 3.7627C11.6663 3.7627 8.1543 7.27474 8.1543 11.6071C8.1543 15.9394 11.6663 19.4514 15.9987 19.4514Z" fill="#F9CC00"/>
<path d="M20.0247 8.72987C19.7805 8.48587 19.3849 8.48587 19.1407 8.72987L14.2622 13.6084L12.2857 11.632C12.0416 11.388 11.646 11.388 11.4018 11.632C11.1577 11.8761 11.1577 12.2718 11.4018 12.5159L13.8202 14.9343C14.0644 15.1784 14.4599 15.1783 14.7041 14.9343L20.0246 9.61381C20.2687 9.36969 20.2687 8.97394 20.0247 8.72987V8.72987Z" fill="#1B1B1B"/>
<path d="M18.364 25.1974L20.0745 22.3466C24.5516 20.6573 27.5438 16.3451 27.5438 11.5444C27.5438 5.17875 22.3651 0 15.9995 0C9.63383 0 4.45508 5.17875 4.45508 11.5444C4.45508 16.3451 7.44733 20.6573 11.9245 22.3466L13.635 25.1974C11.2601 25.3912 6.27502 26.1877 6.27502 28.5511C6.27495 31.3728 13.172 32 15.9995 32C18.8263 32 25.724 31.373 25.724 28.551C25.724 26.1863 20.7333 25.3908 18.364 25.1974ZM12.5558 21.2466C8.4582 19.7921 5.70508 15.893 5.70508 11.5444C5.70508 5.86806 10.3231 1.25 15.9995 1.25C21.6758 1.25 26.2938 5.86806 26.2938 11.5444C26.2938 15.893 23.5407 19.7921 19.4431 21.2466C19.3064 21.2951 19.1909 21.3897 19.1163 21.5141C18.8463 21.9639 16.4043 26.0339 15.9995 26.7086L12.8828 21.5141C12.8081 21.3897 12.6925 21.2952 12.5558 21.2466V21.2466ZM15.9995 30.75C10.5162 30.75 7.52495 29.2974 7.52495 28.551C7.52495 27.9041 9.80827 26.6608 14.3563 26.3996L15.4635 28.2449C15.7057 28.6486 16.2926 28.6497 16.5354 28.2449L17.6426 26.3996C22.1906 26.6608 24.474 27.9041 24.474 28.551C24.474 29.2974 21.4827 30.75 15.9995 30.75V30.75Z" fill="#1B1B1B"/>
</svg>
