<svg width="10" height="10" viewBox="0 0 10 10" fill="none" xmlns="http://www.w3.org/2000/svg">
<path d="M1.49954 9.66647C1.33427 9.66647 1.19563 9.61047 1.08363 9.49847C0.972017 9.38686 0.916211 9.24841 0.916211 9.08314C0.916211 8.91786 0.972017 8.77942 1.08363 8.6678C1.19563 8.5558 1.33427 8.4998 1.49954 8.4998H8.49955C8.66482 8.4998 8.80327 8.5558 8.91488 8.6678C9.02688 8.77942 9.08288 8.91786 9.08288 9.08314C9.08288 9.24841 9.02688 9.38686 8.91488 9.49847C8.80327 9.61047 8.66482 9.66647 8.49955 9.66647H1.49954ZM3.57038 7.08522C3.4926 7.08522 3.41968 7.07297 3.35163 7.04847C3.28357 7.02436 3.22038 6.98314 3.16204 6.9248L0.682878 4.44564C0.575933 4.33869 0.522461 4.19772 0.522461 4.02272C0.522461 3.84772 0.575933 3.70675 0.682878 3.5998C0.789822 3.49286 0.925933 3.43939 1.09121 3.43939C1.25649 3.43939 1.3926 3.49286 1.49954 3.5998L3.57038 5.67064L8.49955 0.741471C8.60649 0.634527 8.74513 0.581055 8.91546 0.581055C9.08541 0.581055 9.22385 0.634527 9.33079 0.741471C9.43774 0.848416 9.49121 0.98686 9.49121 1.1568C9.49121 1.32714 9.43774 1.46578 9.33079 1.57272L3.97871 6.9248C3.92038 6.98314 3.85718 7.02436 3.78913 7.04847C3.72107 7.07297 3.64816 7.08522 3.57038 7.08522Z" fill="#F9CC00"/>
</svg>
