<svg width="35" height="35" viewBox="0 0 35 35" fill="none" xmlns="http://www.w3.org/2000/svg">
<path d="M34.3164 0H6.69922C6.32174 0 6.01562 0.306045 6.01562 0.683594V3.69141H3.69141C3.31393 3.69141 3.00781 3.99752 3.00781 4.375V8.06641H0.683594C0.306045 8.06641 0 8.37252 0 8.75V31.3086C0 33.344 1.65601 35 3.69141 35H31.3086C33.344 35 35 33.344 35 31.3086V0.683594C35 0.306045 34.6939 0 34.3164 0ZM33.6328 31.3086C33.6328 32.5902 32.5902 33.6328 31.3086 33.6328H6.55648C7.0726 32.9978 7.38281 32.1889 7.38281 31.3086V22.0803C7.38281 21.7028 7.0767 21.3967 6.69922 21.3967C6.32174 21.3967 6.01562 21.7028 6.01562 22.0803V31.3086C6.01562 32.5902 4.97301 33.6328 3.69141 33.6328C2.4098 33.6328 1.36719 32.5902 1.36719 31.3086V9.43359H3.00781V30.625C3.00781 31.0025 3.31393 31.3086 3.69141 31.3086C4.06889 31.3086 4.375 31.0025 4.375 30.625V5.05859H6.01562V15.9279C6.01562 16.3055 6.32174 16.6115 6.69922 16.6115C7.0767 16.6115 7.38281 16.3055 7.38281 15.9279V1.36719H33.6328V31.3086Z" fill="#F3F3F5"/>
<path d="M9.98047 10.8008H31.0352C31.4126 10.8008 31.7188 10.4947 31.7188 10.1172V5.19531C31.7188 4.81783 31.4126 4.51172 31.0352 4.51172H9.98047C9.60292 4.51172 9.29688 4.81783 9.29688 5.19531V10.1172C9.29688 10.4947 9.60292 10.8008 9.98047 10.8008ZM10.6641 5.87891H30.3516V9.43359H10.6641V5.87891Z" fill="#F3F3F5"/>
<path d="M9.98047 27.207H20.5078C20.8853 27.207 21.1914 26.9009 21.1914 26.5234V13.3984C21.1914 13.0209 20.8853 12.7148 20.5078 12.7148H9.98047C9.60292 12.7148 9.29688 13.0209 9.29688 13.3984V26.5234C9.29688 26.9009 9.60292 27.207 9.98047 27.207ZM10.6641 14.082H19.8242V25.8398H10.6641V14.082Z" fill="#F3F3F5"/>
<path d="M31.0352 12.7148H23.7891C23.4116 12.7148 23.1055 13.0209 23.1055 13.3984C23.1055 13.776 23.4116 14.082 23.7891 14.082H31.0352C31.4126 14.082 31.7188 13.776 31.7188 13.3984C31.7188 13.0209 31.4126 12.7148 31.0352 12.7148Z" fill="#F3F3F5"/>
<path d="M31.0352 15.9961H23.7891C23.4116 15.9961 23.1055 16.3021 23.1055 16.6797C23.1055 17.0572 23.4116 17.3633 23.7891 17.3633H31.0352C31.4126 17.3633 31.7188 17.0572 31.7188 16.6797C31.7188 16.3021 31.4126 15.9961 31.0352 15.9961Z" fill="#F3F3F5"/>
<path d="M31.0352 19.2773H23.7891C23.4116 19.2773 23.1055 19.5835 23.1055 19.9609C23.1055 20.3384 23.4116 20.6445 23.7891 20.6445H31.0352C31.4126 20.6445 31.7188 20.3384 31.7188 19.9609C31.7188 19.5835 31.4126 19.2773 31.0352 19.2773Z" fill="#F3F3F5"/>
<path d="M31.0352 22.5586H23.7891C23.4116 22.5586 23.1055 22.8647 23.1055 23.2422C23.1055 23.6197 23.4116 23.9258 23.7891 23.9258H31.0352C31.4126 23.9258 31.7188 23.6197 31.7188 23.2422C31.7188 22.8647 31.4126 22.5586 31.0352 22.5586Z" fill="#F3F3F5"/>
<path d="M31.0352 25.8398H23.7891C23.4116 25.8398 23.1055 26.146 23.1055 26.5234C23.1055 26.9009 23.4116 27.207 23.7891 27.207H31.0352C31.4126 27.207 31.7188 26.9009 31.7188 26.5234C31.7188 26.146 31.4126 25.8398 31.0352 25.8398Z" fill="#F3F3F5"/>
<path d="M9.98047 30.4883H31.0352C31.4126 30.4883 31.7188 30.1822 31.7188 29.8047C31.7188 29.4272 31.4126 29.1211 31.0352 29.1211H9.98047C9.60292 29.1211 9.29688 29.4272 9.29688 29.8047C9.29688 30.1822 9.60292 30.4883 9.98047 30.4883Z" fill="#F3F3F5"/>
<path d="M6.73438 18.3203C6.55459 18.3203 6.37822 18.3934 6.25107 18.5206C6.12393 18.6478 6.05078 18.8241 6.05078 19.0039C6.05078 19.1844 6.12386 19.3601 6.25107 19.4871C6.37822 19.615 6.55459 19.6875 6.73438 19.6875C6.91416 19.6875 7.09053 19.615 7.21761 19.4871C7.34476 19.3601 7.41797 19.1837 7.41797 19.0039C7.41797 18.8241 7.34482 18.6478 7.21761 18.5206C7.09053 18.3934 6.91416 18.3203 6.73438 18.3203Z" fill="#F3F3F5"/>
</svg>
