<svg width="21" height="21" viewBox="0 0 21 21" fill="none" xmlns="http://www.w3.org/2000/svg">
<path d="M10.5741 1.31592C6.95183 1.31592 4 4.26903 4 7.89132C4 10.4735 5.55764 13.3049 7.06561 15.5669C8.57358 17.8289 10.0837 19.5016 10.0837 19.5016C10.1454 19.5699 10.2206 19.6244 10.3046 19.6617C10.3887 19.6991 10.4796 19.7184 10.5715 19.7184C10.6635 19.7184 10.7544 19.6991 10.8385 19.6617C10.9225 19.6244 10.9977 19.5699 11.0594 19.5016C11.0594 19.5016 12.5695 17.8289 14.0775 15.5669C15.5855 13.3049 17.1431 10.4735 17.1431 7.89132C17.1431 4.26903 14.1964 1.31592 10.5741 1.31592ZM10.5741 5.2609C12.0184 5.2609 13.2032 6.44707 13.2032 7.89132C13.2032 9.33555 12.0184 10.5205 10.5741 10.5205C9.12988 10.5205 7.9437 9.33555 7.9437 7.89132C7.9437 6.44707 9.12988 5.2609 10.5741 5.2609ZM10.5741 6.57547C9.84032 6.57547 9.25955 7.15751 9.25955 7.89132C9.25955 8.62511 9.84032 9.20591 10.5741 9.20589C11.3079 9.20591 11.8887 8.62511 11.8887 7.89132C11.8887 7.15751 11.3079 6.57547 10.5741 6.57547Z" fill="#1B1B1B"/>
</svg>
