<?xml version="1.0" encoding="UTF-8"?>
<svg width="43px" height="41px" viewBox="0 0 43 41" version="1.1" xmlns="http://www.w3.org/2000/svg" xmlns:xlink="http://www.w3.org/1999/xlink">
    <!-- Generator: Sketch 50.2 (55047) - http://www.bohemiancoding.com/sketch -->
    <title>logo-small</title>
    <desc>Created with Sketch.</desc>
    <defs></defs>
    <g id="Symbols" stroke="none" stroke-width="1" fill="none" fill-rule="evenodd">
        <g id="menu-non-login" transform="translate(-270.000000, -7.000000)" fill="#FFFFFF">
            <g id="Group">
                <g id="logo/l-white" transform="translate(270.000000, 7.000000)">
                    <path d="M43,38.7222967 C43,39.5228297 42.349115,40.1717172 41.5459684,40.1717172 C40.7429712,40.1717172 40.0917874,39.5228297 40.0917874,38.7222967 C40.0917874,37.9216148 40.7429712,37.2727273 41.5459684,37.2727273 C42.349115,37.2727273 43,37.9216148 43,38.7222967" id="Fill-1"></path>
                    <path d="M4.99275867,35.1009227 C6.2681145,32.5568369 9.02307124,33.3810815 10.1648767,33.8619263 C9.85074125,34.3788737 9.54530009,34.8516168 9.25582225,35.2582669 C6.67688971,38.8797409 4.51898992,37.3577525 4.99275867,35.1009227 Z M17.5757089,30.480093 L12.8518468,28.872681 C13.3682319,27.811212 14.2911118,25.8875483 14.7296757,24.9377979 C14.9431852,24.4751464 17.8964008,17.9326428 18.1683474,17.3716334 C17.1372875,17.433036 16.0787194,17.4657272 14.9925005,17.4657272 C2.83471636,17.4657272 -2.54606519,13.9996074 1.14787726,10.8015555 C5.52467954,6.96389315 3.68960955,10.9081572 3.68960955,10.9081572 C3.68960955,10.9081572 -0.107239353,11.8382929 2.29994489,13.7331031 C3.65255182,14.7976991 8.49998721,17.5352315 19.1138895,15.4799501 C22.2593777,9.37934625 27.771144,0.56125101 33.7291709,0.0931983405 C36.5184773,-0.379260534 40.6237605,1.87756919 38.3079378,7.70356703 C36.6334988,11.9160411 31.5453307,15.1396774 24.2600672,16.6025374 C23.2743317,18.5156832 22.1204112,20.8778354 20.795455,23.7526709 C20.1757359,25.1417626 18.192435,29.3754148 17.5757089,30.480093 Z M37.2027624,5.02672648 C35.8344772,12.3747128 26.9922192,13.9492914 26.9922192,13.9492914 C26.4746938,14.080909 25.967003,14.2042828 25.468434,14.3202654 C27.9909248,9.6941767 29.097668,8.59575245 29.097668,8.59575245 C29.097668,8.59575245 37.9922345,-2.11118333 37.2027624,5.02672648 Z M12.8518468,28.872681 L17.5757089,30.480093 C16.844389,31.7345822 15.7764139,33.4127777 15.0656182,34.3227301 C15.6910386,34.6355706 16.3325648,34.9677416 16.9924774,35.3107149 C21.9396835,37.8825172 30.6820283,40.1012546 36.93951,35.9406601 C38.5143208,34.8935468 37.9725654,33.4595403 37.3266207,32.9984523 C36.8681027,32.6709718 36.1078492,33.6301031 35.699359,33.5669949 C34.1671647,33.3300548 34.7729159,32.5483087 34.7729159,32.5483087 C34.7729159,32.5483087 38.0439727,31.1455721 38.7281153,33.8748607 C39.4124005,36.6041493 34.8156749,43.2750014 22.887221,39.8245165 C19.154653,38.7448542 15.887302,37.1583361 13.6732455,35.9295735 C13.2904107,36.3242842 12.8883344,36.7012279 12.4648786,37.0525872 C11.1584513,38.1359451 9.61499712,38.9933073 7.91661311,39.2436082 C6.81044004,39.4066377 4.9497147,39.4238361 4.0678834,38.6665374 C3.67136575,38.3259804 3.36293146,37.8653188 3.16681058,37.3840475 C2.52599701,35.8113167 3.35195667,34.3301211 4.62417685,33.3688578 C6.54661755,31.9165158 8.61443856,31.8801291 10.9160083,32.5720454 C11.5582472,31.4271428 12.2180172,30.1513333 12.8518468,28.872681 Z" id="Fill-3"></path>
                </g>
            </g>
        </g>
    </g>
</svg>