<svg width="36" height="46" viewBox="0 0 36 46" fill="none" xmlns="http://www.w3.org/2000/svg">
<path d="M24.6818 12.9736H15.7412C14.9532 12.9736 14.3145 13.7897 14.3145 14.7967C14.3145 15.8035 14.9531 16.6197 15.7412 16.6197H24.6818C25.4702 16.6197 26.1085 15.8036 26.1085 14.7967C26.1084 13.7897 25.4697 12.9736 24.6818 12.9736Z" fill="#1B1B1B"/>
<path d="M28.1058 21.7842H15.7412C14.9532 21.7842 14.3145 22.6002 14.3145 23.6072C14.3145 24.6141 14.9531 25.4302 15.7412 25.4302H28.1058C28.8937 25.4302 29.5325 24.6142 29.5325 23.6072C29.5325 22.6002 28.8937 21.7842 28.1058 21.7842Z" fill="#1B1B1B"/>
<path d="M34.5733 1.5498H9.32098C8.53298 1.5498 7.89427 2.36586 7.89427 3.37282V20.5696H5.37384C2.41059 20.5696 0 23.6505 0 27.4362V37.5842C0 41.3705 2.41059 44.4507 5.37384 44.4507C5.61635 44.4507 5.85513 44.4301 6.08864 44.39H29.6275C33.141 44.39 36 40.7373 36 36.2474V3.37282C36 2.36586 35.3614 1.5498 34.5733 1.5498ZM7.89434 37.5842C7.89434 39.1465 7.0188 40.453 5.86181 40.744H5.37391V40.8047C3.98384 40.8047 2.85342 39.3597 2.85342 37.5841V27.4362C2.85342 25.6606 3.98433 24.2156 5.37391 24.2156H7.89441V37.5842H7.89434ZM33.1466 36.2473C33.1466 38.6847 31.5354 40.744 29.6275 40.744H10.1442C10.5299 39.7978 10.7477 38.7228 10.7477 37.5842V5.19575H33.1466V36.2473Z" fill="#1B1B1B"/>
<path d="M24.6818 30.0498H15.7412C14.9532 30.0498 14.3145 30.8659 14.3145 31.8728C14.3145 32.8797 14.9531 33.6958 15.7412 33.6958H24.6818C25.4702 33.6958 26.1085 32.8798 26.1085 31.8728C26.1084 30.8659 25.4697 30.0498 24.6818 30.0498Z" fill="#1B1B1B"/>
</svg>
