<svg width="17" height="17" viewBox="0 0 17 17" fill="none" xmlns="http://www.w3.org/2000/svg">
<g clip-path="url(#clip0_690_3325)">
<path d="M7.28613 12.4751V15.7603C7.28613 15.9898 7.43347 16.1931 7.65163 16.2654C7.70617 16.2831 7.76213 16.2916 7.81738 16.2916C7.98313 16.2916 8.14322 16.2137 8.24522 16.0748L10.1669 13.4597L7.28613 12.4751Z" fill="#1B1B1B"/>
<path d="M16.7769 0.0985211C16.614 -0.0169372 16.4001 -0.0325206 16.223 0.0602711L0.28549 8.38319C0.0970732 8.48165 -0.0141352 8.68281 0.00144817 8.8946C0.0177398 9.1071 0.158698 9.28844 0.359157 9.35715L4.78978 10.8716L14.2255 2.80365L6.92399 11.6004L14.3495 14.1384C14.4047 14.1568 14.4628 14.1667 14.5209 14.1667C14.6172 14.1667 14.7128 14.1405 14.7971 14.0895C14.9317 14.0074 15.0231 13.8692 15.0465 13.7141L16.9944 0.609938C17.0234 0.411604 16.9398 0.214688 16.7769 0.0985211Z" fill="#1B1B1B"/>
</g>
<defs>
<clipPath id="clip0_690_3325">
<rect width="17" height="17" fill="white"/>
</clipPath>
</defs>
</svg>
