<svg width="22" height="22" viewBox="0 0 22 22" fill="none" xmlns="http://www.w3.org/2000/svg">
<path d="M11 21.9724C17.0751 21.9724 22 17.0537 22 10.9862C22 4.91868 17.0751 0 11 0C4.92487 0 0 4.91868 0 10.9862C0 17.0537 4.92487 21.9724 11 21.9724Z" fill="white"/>
<path d="M8.98514 16.7818C13.8636 16.7818 16.5311 12.7444 16.5311 9.24532C16.5311 9.12997 16.5311 9.01461 16.5256 8.90475C17.0426 8.53122 17.4936 8.06431 17.8511 7.53148C17.3781 7.74022 16.8666 7.88304 16.3276 7.94895C16.8776 7.61937 17.2956 7.10302 17.4936 6.4823C16.9821 6.78442 16.4156 7.00414 15.8106 7.12499C15.3266 6.60864 14.6391 6.29004 13.8746 6.29004C12.4116 6.29004 11.2236 7.47655 11.2236 8.93771C11.2236 9.14645 11.2456 9.34969 11.2951 9.54195C9.08964 9.43209 7.13714 8.37741 5.82814 6.77343C5.60264 7.16344 5.47064 7.61937 5.47064 8.10276C5.47064 9.02011 5.93814 9.83308 6.65314 10.3055C6.21864 10.2945 5.81164 10.1737 5.45414 9.9759C5.45414 9.98689 5.45414 9.99788 5.45414 10.0089C5.45414 11.2942 6.36714 12.3599 7.58264 12.6071C7.36264 12.6675 7.12614 12.7005 6.88414 12.7005C6.71364 12.7005 6.54864 12.684 6.38364 12.651C6.71914 13.7057 7.69814 14.4693 8.85864 14.4912C7.95114 15.1998 6.80714 15.6228 5.56414 15.6228C5.34964 15.6228 5.14064 15.6118 4.93164 15.5843C6.09214 16.3424 7.48914 16.7818 8.98514 16.7818Z" fill="black"/>
</svg>
