<svg width="20" height="20" viewBox="0 0 20 20" fill="none" xmlns="http://www.w3.org/2000/svg">
<path d="M10 20C15.5228 20 20 15.5228 20 10C20 4.47715 15.5228 0 10 0C4.47715 0 0 4.47715 0 10C0 15.5228 4.47715 20 10 20Z" fill="black"/>
<path d="M8.17035 15.2746C12.6054 15.2746 15.0304 11.5996 15.0304 8.41461C15.0304 8.30961 15.0304 8.20461 15.0254 8.10461C15.4954 7.76461 15.9054 7.33961 16.2304 6.85461C15.8004 7.04461 15.3354 7.17461 14.8454 7.23461C15.3454 6.93461 15.7254 6.46461 15.9054 5.89961C15.4404 6.17461 14.9254 6.37461 14.3754 6.48461C13.9354 6.01461 13.3104 5.72461 12.6154 5.72461C11.2854 5.72461 10.2054 6.80461 10.2054 8.13461C10.2054 8.32461 10.2254 8.50961 10.2704 8.68461C8.26535 8.58461 6.49035 7.62461 5.30035 6.16461C5.09535 6.51961 4.97535 6.93461 4.97535 7.37461C4.97535 8.20961 5.40035 8.94961 6.05035 9.37961C5.65535 9.36961 5.28535 9.25961 4.96035 9.07961C4.96035 9.08961 4.96035 9.09961 4.96035 9.10961C4.96035 10.2796 5.79035 11.2496 6.89535 11.4746C6.69535 11.5296 6.48035 11.5596 6.26035 11.5596C6.10535 11.5596 5.95535 11.5446 5.80535 11.5146C6.11035 12.4746 7.00035 13.1696 8.05535 13.1896C7.23035 13.8346 6.19035 14.2196 5.06035 14.2196C4.86535 14.2196 4.67535 14.2096 4.48535 14.1846C5.54035 14.8746 6.81035 15.2746 8.17035 15.2746Z" fill="white"/>
</svg>
