<svg width="21" height="23" viewBox="0 0 21 23" fill="none" xmlns="http://www.w3.org/2000/svg">
<g clip-path="url(#clip0_690_3149)">
<path d="M9.41756 5.32255C9.14354 5.28278 8.88727 5.5064 8.84797 5.81957C8.80999 6.12217 9.00304 6.40217 9.27274 6.43567L14.3367 7.07125L4.80611 15.3875C4.58422 15.5818 4.54066 15.9288 4.70803 16.1716C4.87539 16.4143 5.18933 16.4594 5.4115 16.2656L14.942 7.94932L14.2256 13.6194C14.1917 13.9279 14.385 14.2083 14.6547 14.2418C14.9341 14.2768 15.1907 14.0529 15.2243 13.7447L16.1053 6.72509C16.1487 6.4178 15.9556 6.13779 15.6806 6.10899L9.41756 5.32255Z" fill="#1B1B1B"/>
</g>
<defs>
<clipPath id="clip0_690_3149">
<rect width="15" height="15" rx="7.5" transform="matrix(0.753476 -0.657476 0.567621 0.82329 0.453125 10)" fill="white"/>
</clipPath>
</defs>
</svg>
