<svg width="41" height="41" viewBox="0 0 41 41" fill="none" xmlns="http://www.w3.org/2000/svg">
<g clip-path="url(#clip0_92_1435)">
<path d="M40.8058 38.8824L38.1707 34.4506C37.9194 34.028 37.4578 33.7654 36.9661 33.7654H34.8698C34.9159 33.454 34.8549 33.133 34.686 32.849L32.0509 28.4172C31.7996 27.9946 31.3381 27.7321 30.8463 27.7321H28.5462C28.5922 27.4207 28.5312 27.0997 28.3623 26.8157L25.7272 22.3838C25.4759 21.9613 25.0143 21.6987 24.5226 21.6987H17.2792V7.82868C17.4428 7.71433 17.5739 7.55297 17.6519 7.3575L18.3343 5.64663L19.8785 4.96693C20.2585 4.79972 20.5041 4.42344 20.5041 4.00847C20.5041 3.59351 20.2585 3.2173 19.8786 3.05002L18.3343 2.37031L17.6518 0.659443C17.4921 0.258813 17.11 0 16.6787 0C16.6787 0 16.6787 0 16.6786 0C16.2471 0 15.8651 0.258813 15.7052 0.659443L15.0228 2.37031L13.4786 3.0501C13.2997 3.12881 13.1511 3.2543 13.0434 3.40797H1.43835C0.647414 3.40797 0.00390625 4.05147 0.00390625 4.8424V8.82029C0.00390625 9.15197 0.272809 9.42087 0.604492 9.42087C0.936176 9.42087 1.20508 9.15197 1.20508 8.82029V5.45732L3.59133 7.84101V36.567L1.20508 38.9506V11.3102C1.20508 10.9785 0.936176 10.7096 0.604492 10.7096C0.272809 10.7096 0.00390625 10.9785 0.00390625 11.3102V39.5656C0.00390625 40.3882 0.69426 40.957 1.46725 41.0001H34.8913C35.223 41.0001 35.4919 40.7312 35.4919 40.3995C35.4919 40.0678 35.223 39.7989 34.8913 39.7989H26.3429C26.1682 39.7648 26.1109 39.664 26.1708 39.4964L27.2126 37.7443C27.5704 38.569 28.8087 38.5619 29.1464 37.7152L29.8288 36.0044L31.3729 35.3246C31.5518 35.2459 31.7004 35.1204 31.8081 34.9668H36.9661C37.0364 34.9668 37.1023 35.0042 37.1382 35.0646L39.7733 39.4965C39.8333 39.6641 39.776 39.7649 39.6013 39.799H37.4538C37.1221 39.799 36.8532 40.0679 36.8532 40.3996C36.8532 40.7313 37.1221 41.0002 37.4538 41.0002H39.6013C40.6576 41 41.3497 39.7971 40.8058 38.8824V38.8824ZM31.0184 29.0311L33.6535 33.463C33.7135 33.6305 33.6561 33.7313 33.4814 33.7654H31.8081C31.7004 33.6118 31.5519 33.4864 31.373 33.4076L29.8288 32.7278L29.1464 31.0169C28.9867 30.6163 28.6046 30.3575 28.1731 30.3575C28.1731 30.3575 28.1732 30.3575 28.1731 30.3575C27.7416 30.3575 27.3596 30.6163 27.1997 31.0169L26.5174 32.7278L24.9731 33.4076C24.7943 33.4863 24.6457 33.6118 24.538 33.7654H20.2231C20.0484 33.7313 19.991 33.6305 20.051 33.4629L22.6862 29.0311C22.7222 28.9707 22.7881 28.9333 22.8583 28.9333H30.8464C30.9165 28.9333 30.9824 28.9707 31.0184 29.0311V29.0311ZM13.4787 4.96693L14.4439 5.39182L12.8426 6.99138H4.44047L2.05559 4.60906H13.0434C13.1511 4.76273 13.2998 4.88821 13.4787 4.96693V4.96693ZM4.7925 8.19263H12.4905V36.2153H4.7925V8.19263ZM13.6917 7.84101L15.2694 6.26499L15.7052 7.35758C15.7832 7.55297 15.9143 7.71433 16.078 7.82868V38.9506L13.6917 36.567V7.84101H13.6917ZM17.2792 28.9333H21.3469L19.0185 32.849C18.8496 33.133 18.7886 33.454 18.8346 33.7654H17.2792V28.9333ZM24.5226 22.8999C24.5929 22.8999 24.6588 22.9373 24.6947 22.9977L27.3299 27.4296C27.3898 27.5971 27.3325 27.698 27.1578 27.7321H17.2792V22.8999H24.5226ZM15.5643 3.44432C15.8172 3.33293 16.0128 3.13033 16.1151 2.87376L16.6785 1.46143L17.2419 2.87384C17.3443 3.13041 17.54 3.33309 17.7929 3.4444L19.0744 4.00855L17.7929 4.5727C17.54 4.68401 17.3443 4.88669 17.2419 5.14326L16.6786 6.5556L16.1152 5.14318C16.0129 4.88661 15.8173 4.68401 15.5643 4.57262L14.2828 4.00847L15.5643 3.44432ZM4.44047 37.4165H12.8425L15.2275 39.7988H2.05559L4.44047 37.4165ZM25.1383 38.8824C24.9695 39.1665 24.9085 39.4874 24.9545 39.7988H17.2584C17.2709 39.7228 17.2792 39.6452 17.2792 39.5656V34.9666H24.538C24.6457 35.1203 24.7943 35.2457 24.9731 35.3245L26.5174 36.0043L26.6508 36.3387L25.1383 38.8824ZM29.2875 34.9302C29.0346 35.0415 28.8388 35.2441 28.7364 35.5008L28.1731 36.9131L27.6097 35.5007C27.5073 35.2441 27.3116 35.0414 27.0588 34.9302L25.7772 34.366L27.0588 33.8019C27.3117 33.6906 27.5074 33.4879 27.6097 33.2313L28.1731 31.819L28.7365 33.2314C28.8388 33.488 29.0345 33.6906 29.2874 33.8019L30.569 34.3661L29.2875 34.9302Z" fill="white"/>
</g>
<defs>
<clipPath id="clip0_92_1435">
<rect width="41" height="41" fill="white"/>
</clipPath>
</defs>
</svg>
