<svg width="58" height="58" viewBox="0 0 58 58" fill="none" xmlns="http://www.w3.org/2000/svg">
<path d="M58 23.0033V22.9982C58 22.9498 57.9973 22.9019 57.9933 22.8542C57.9922 22.8412 57.9905 22.8283 57.9891 22.8153C57.985 22.7779 57.9798 22.7408 57.9734 22.7041C57.971 22.6903 57.9686 22.6765 57.9659 22.6628C57.9568 22.618 57.9465 22.5736 57.934 22.53C57.9327 22.5257 57.9317 22.5213 57.9304 22.517C57.9172 22.4724 57.9018 22.4285 57.885 22.3852C57.8787 22.3687 57.8717 22.3525 57.8647 22.3361C57.8524 22.3068 57.8391 22.278 57.8251 22.2495C57.8169 22.233 57.8091 22.2163 57.8005 22.2C57.7793 22.1603 57.7568 22.1213 57.7325 22.0832C57.7235 22.0691 57.7135 22.0555 57.704 22.0415C57.6851 22.0138 57.6655 21.9866 57.645 21.9601C57.634 21.9459 57.623 21.9319 57.6116 21.918C57.5818 21.8818 57.551 21.8465 57.5181 21.8128C57.5155 21.8102 57.513 21.8075 57.5104 21.8049C57.4753 21.7692 57.4379 21.7356 57.3995 21.7029C57.3947 21.6989 57.3907 21.6943 57.3858 21.6904L54.4883 19.286V11.8968C54.4883 9.71054 52.7097 7.93191 50.5234 7.93191H40.8066L32.9789 1.4358C30.6732 -0.477297 27.3266 -0.477297 25.0211 1.4358L17.1934 7.9318H7.47656C5.29035 7.9318 3.51172 9.71043 3.51172 11.8966V19.2859L0.614098 21.6906C0.60934 21.6946 0.605148 21.6991 0.600391 21.7032C0.561988 21.7358 0.524605 21.7694 0.489488 21.8051C0.486883 21.8077 0.484391 21.8104 0.481785 21.8131C0.449047 21.8467 0.418121 21.882 0.388328 21.9182C0.376887 21.932 0.365898 21.9462 0.35491 21.9603C0.334406 21.9869 0.314809 22.0141 0.295891 22.0418C0.286375 22.0557 0.276406 22.0693 0.267344 22.0835C0.243102 22.1214 0.220559 22.1604 0.199375 22.2002C0.190652 22.2166 0.182836 22.2332 0.174793 22.2498C0.160746 22.2782 0.147605 22.3071 0.135145 22.3363C0.128234 22.3526 0.121211 22.3689 0.114867 22.3855C0.0981016 22.4287 0.082582 22.4725 0.0694414 22.5172C0.0681953 22.5215 0.0671758 22.5258 0.0659297 22.5302C0.0533555 22.5739 0.0430469 22.6183 0.0339844 22.663C0.0312656 22.6768 0.0288867 22.6905 0.0265078 22.7044C0.0200508 22.7411 0.0148398 22.7781 0.0107617 22.8155C0.00940234 22.8285 0.00770313 22.8414 0.00657031 22.8544C0.00271875 22.9019 0 22.9498 0 22.9982V23.0033V23.0042V51.7694C0 53.5499 0.751961 55.1572 1.95365 56.2937C1.98775 56.3278 2.02196 56.3616 2.05843 56.3923C3.16372 57.3907 4.6272 57.9997 6.23047 57.9997H51.7695C53.3729 57.9997 54.8365 57.3906 55.9419 56.3919C55.978 56.3613 56.012 56.3279 56.0459 56.2941C57.2478 55.1575 58 53.55 58 51.7693V23.0042C58 23.004 58 23.0036 58 23.0033ZM7.47656 11.3302H50.5234C50.8358 11.3302 51.0898 11.5843 51.0898 11.8966V25.1145L50.1283 25.9125L30.8086 41.9455C29.7607 42.8152 28.2393 42.8151 27.1914 41.9455L7.87169 25.9126L6.91016 25.1145V11.8966C6.91016 11.5843 7.16425 11.3302 7.47656 11.3302ZM3.39844 51.7694V26.6164L4.12933 27.223C4.12978 27.2234 4.13023 27.2238 4.13069 27.2242L20.7229 40.9936L3.57244 52.7468C3.45995 52.442 3.39844 52.1127 3.39844 51.7694ZM23.4421 43.2502L25.0211 44.5606C27.3266 46.4739 30.6734 46.4738 32.9789 44.5606L34.5579 43.2502L51.1219 54.6014H6.87798L23.4421 43.2502ZM37.2771 40.9937L53.8692 27.2242C53.8697 27.2238 53.8701 27.2234 53.8706 27.223L54.6014 26.6164V51.7694C54.6014 52.1127 54.5399 52.442 54.4275 52.7468L37.2771 40.9937ZM27.1914 4.05112C28.2393 3.18146 29.7607 3.18146 30.8086 4.05112L35.485 7.93191H22.515L27.1914 4.05112Z" fill="#F9CC00"/>
</svg>
