<svg width="43" height="43" viewBox="0 0 43 43" fill="none" xmlns="http://www.w3.org/2000/svg">
<path d="M29.0586 0C28.5948 0 28.2188 0.376082 28.2188 0.839844V4.70312C28.2188 5.16689 28.5948 5.54297 29.0586 5.54297C29.5224 5.54297 29.8984 5.16689 29.8984 4.70312V0.839844C29.8984 0.376082 29.5224 0 29.0586 0Z" fill="#F3F3F5"/>
<path d="M9.74219 26.2031C9.27859 26.2031 8.90234 26.5794 8.90234 27.043C8.90234 27.5066 9.27859 27.8828 9.74219 27.8828C10.2058 27.8828 10.582 27.5066 10.582 27.043C10.582 26.5794 10.2058 26.2031 9.74219 26.2031Z" fill="#F3F3F5"/>
<path d="M40.8164 24.5234C40.8164 22.6711 39.3094 21.1641 37.457 21.1641H31.1874C32.158 18.6779 32.5509 15.7515 32.4752 13.1466C32.4607 12.6495 32.4417 12.362 32.4159 12.181C32.3724 10.3664 30.8824 8.90234 29.0586 8.90234C27.2062 8.90234 25.6992 10.4094 25.6992 12.2617V13.1016C25.6992 18.4132 18.8785 21.3976 13.7311 22.6774C13.3419 21.7876 12.4535 21.1641 11.4219 21.1641H3.02344C2.55968 21.1641 2.18359 21.5401 2.18359 22.0039V42.1602C2.18359 42.6239 2.55968 43 3.02344 43H11.4219C12.4467 43 13.3299 42.3846 13.7231 41.5043C14.1494 41.6137 14.545 41.717 14.9102 41.8124C17.8426 42.5782 19.4578 43 23.3863 43H32.418C34.2703 43 35.7773 41.493 35.7773 39.6406C35.7773 38.9499 35.5676 38.3075 35.2088 37.773C36.5062 37.3192 37.457 36.0796 37.457 34.6016C37.457 33.9134 37.2524 33.2688 36.8947 32.7319C38.1864 32.2774 39.1367 31.0406 39.1367 29.5625C39.1367 28.8718 38.927 28.2293 38.5681 27.6949C39.8655 27.2411 40.8164 26.0015 40.8164 24.5234ZM12.2617 40.4805C12.2617 40.9436 11.885 41.3203 11.4219 41.3203H3.86328V22.8438H11.4219C11.885 22.8438 12.2617 23.2205 12.2617 23.6836V40.4805ZM37.457 26.2031C35.6557 26.2031 35.2262 26.2031 33.2578 26.2031C32.7941 26.2031 32.418 26.5792 32.418 27.043C32.418 27.5067 32.7941 27.8828 33.2578 27.8828H35.7773C36.7035 27.8828 37.457 28.6363 37.457 29.5625C37.457 30.4902 36.705 31.2422 35.7773 31.2422H31.5781C31.1144 31.2422 30.7383 31.6183 30.7383 32.082C30.7383 32.5458 31.1144 32.9219 31.5781 32.9219H34.0977C35.0128 32.9219 35.7773 33.653 35.7773 34.6016C35.7773 35.5293 35.0253 36.2812 34.0977 36.2812C32.2963 36.2812 31.8669 36.2812 29.8984 36.2812C29.4347 36.2812 29.0586 36.6573 29.0586 37.1211C29.0586 37.5849 29.4347 37.9609 29.8984 37.9609H32.418C33.3441 37.9609 34.0977 38.7144 34.0977 39.6406C34.0977 40.5668 33.3441 41.3203 32.418 41.3203H23.3863C19.6736 41.3203 18.2235 40.9416 15.3347 40.1872C14.9115 40.0767 14.4473 39.9555 13.9414 39.8265V24.3576C20.0192 22.9098 27.3789 19.3761 27.3789 13.1016V12.2617C27.3789 11.3355 28.1324 10.582 29.0586 10.582C29.9831 10.582 30.7365 11.3344 30.7383 12.2591V12.2617C30.7383 12.6267 31.1938 17.1062 29.3672 21.1641H26.5391C26.0753 21.1641 25.6992 21.5401 25.6992 22.0039C25.6992 22.4677 26.0753 22.8438 26.5391 22.8438C27.1255 22.8438 36.4998 22.8438 37.457 22.8438C38.3832 22.8438 39.1367 23.5973 39.1367 24.5234C39.1367 25.4511 38.3847 26.2031 37.457 26.2031Z" fill="#F3F3F5"/>
<path d="M9.74219 29.5625C9.27843 29.5625 8.90234 29.9386 8.90234 30.4023V37.1211C8.90234 37.5849 9.27843 37.9609 9.74219 37.9609C10.2059 37.9609 10.582 37.5849 10.582 37.1211V30.4023C10.582 29.9386 10.2059 29.5625 9.74219 29.5625Z" fill="#F3F3F5"/>
<path d="M22.3398 10.582H18.9805C18.5167 10.582 18.1406 10.9581 18.1406 11.4219C18.1406 11.8856 18.5167 12.2617 18.9805 12.2617H22.3398C22.8036 12.2617 23.1797 11.8856 23.1797 11.4219C23.1797 10.9581 22.8036 10.582 22.3398 10.582Z" fill="#F3F3F5"/>
<path d="M39.1367 10.582H35.7773C35.3136 10.582 34.9375 10.9581 34.9375 11.4219C34.9375 11.8856 35.3136 12.2617 35.7773 12.2617H39.1367C39.6005 12.2617 39.9766 11.8856 39.9766 11.4219C39.9766 10.9581 39.6005 10.582 39.1367 10.582Z" fill="#F3F3F5"/>
<path d="M36.7795 3.70196C36.4514 3.37409 35.9198 3.37409 35.5917 3.70196L33.2167 6.07696C32.8887 6.40491 32.8887 6.9367 33.2167 7.26475C33.5448 7.59271 34.0763 7.59262 34.4045 7.26475L36.7795 4.88975C37.1074 4.56179 37.1074 4.03 36.7795 3.70196Z" fill="#F3F3F5"/>
<path d="M24.9006 6.07696L22.5256 3.70196C22.1975 3.37409 21.6659 3.37409 21.3378 3.70196C21.0098 4.02992 21.0098 4.56171 21.3378 4.88975L23.7128 7.26475C24.041 7.59271 24.5725 7.59262 24.9006 7.26475C25.2285 6.93679 25.2285 6.405 24.9006 6.07696Z" fill="#F3F3F5"/>
</svg>
