<svg width="65" height="60" viewBox="0 0 65 60" fill="none" xmlns="http://www.w3.org/2000/svg">
<path fill-rule="evenodd" clip-rule="evenodd" d="M65.0001 56.2429C65.0001 57.4067 64.0162 58.3499 62.8022 58.3499C61.5883 58.3499 60.604 57.4067 60.604 56.2429C60.604 55.079 61.5883 54.1357 62.8022 54.1357C64.0162 54.1357 65.0001 55.079 65.0001 56.2429Z" fill="#1B1B1B"/>
<path fill-rule="evenodd" clip-rule="evenodd" d="M7.54724 50.9786C9.4751 47.2803 13.6396 48.4785 15.3656 49.1775C14.8907 49.929 14.429 50.6162 13.9914 51.2073C10.093 56.4718 6.83107 54.2593 7.54724 50.9786ZM26.568 44.2614L19.4273 41.9247C20.2079 40.3816 21.6029 37.5852 22.2659 36.2046C22.5886 35.5321 27.0528 26.0213 27.4639 25.2058C25.9053 25.295 24.3051 25.3426 22.6631 25.3426C4.28508 25.3426 -3.84867 20.3039 1.7352 15.655C8.3513 10.0762 5.57736 15.8099 5.57736 15.8099C5.57736 15.8099 -0.162072 17.1621 3.4767 19.9165C5.52134 21.4641 12.8489 25.4436 28.8932 22.4559C33.648 13.5875 41.9797 0.768793 50.9861 0.0883919C55.2024 -0.598414 61.4081 2.6823 57.9075 11.1515C55.3763 17.2751 47.6849 21.9612 36.6723 24.0878C35.1822 26.8689 33.4379 30.3027 31.4351 34.4818C30.4983 36.5011 27.5003 42.6555 26.568 44.2614ZM56.2368 7.26019C54.1685 17.9418 40.8023 20.2308 40.8023 20.2308C40.02 20.4221 39.2525 20.6015 38.4989 20.7701C42.3119 14.0452 43.9849 12.4484 43.9849 12.4484C43.9849 12.4484 57.4302 -3.11608 56.2368 7.26019ZM19.4273 41.9247L26.568 44.2614C25.4625 46.085 23.8481 48.5246 22.7737 49.8473C23.7191 50.3021 24.6888 50.785 25.6864 51.2836C33.1647 55.0221 46.3799 58.2475 55.8389 52.1993C58.2194 50.6771 57.4005 48.5925 56.4241 47.9223C55.731 47.4462 54.5817 48.8405 53.9642 48.7487C51.6481 48.4043 52.5638 47.2679 52.5638 47.2679C52.5638 47.2679 57.5084 45.2287 58.5426 49.1963C59.577 53.1638 52.6284 62.8611 34.597 57.8452C28.9548 56.2757 24.0158 53.9694 20.6689 52.1832C20.0902 52.757 19.4824 53.3049 18.8423 53.8157C16.8675 55.3905 14.5343 56.6369 11.967 57.0007C10.2949 57.2377 7.48217 57.2627 6.14917 56.1619C5.54978 55.6668 5.08354 54.9971 4.78708 54.2975C3.81841 52.0113 5.06695 49.8581 6.99008 48.4607C9.8961 46.3495 13.0219 46.2966 16.501 47.3024C17.4718 45.6381 18.4692 43.7834 19.4273 41.9247Z" fill="#1B1B1B"/>
</svg>
