<svg width="122" height="122" viewBox="0 0 122 122" fill="none" xmlns="http://www.w3.org/2000/svg">
<path d="M10.166 30.4998C10.166 25.1071 12.3083 19.9352 16.1215 16.122C19.9348 12.3088 25.1066 10.1665 30.4993 10.1665H91.4993C96.8921 10.1665 102.064 12.3088 105.877 16.122C109.69 19.9352 111.833 25.1071 111.833 30.4998V91.4998C111.833 96.8926 109.69 102.064 105.877 105.878C102.064 109.691 96.8921 111.833 91.4993 111.833H30.4993C25.1066 111.833 19.9348 109.691 16.1215 105.878C12.3083 102.064 10.166 96.8926 10.166 91.4998V30.4998Z" stroke="black" stroke-width="2" stroke-linecap="round" stroke-linejoin="round"/>
<path d="M43.2083 55.9167C50.227 55.9167 55.9167 50.227 55.9167 43.2083C55.9167 36.1897 50.227 30.5 43.2083 30.5C36.1897 30.5 30.5 36.1897 30.5 43.2083C30.5 50.227 36.1897 55.9167 43.2083 55.9167Z" stroke="black" stroke-width="2" stroke-linecap="round" stroke-linejoin="round"/>
<path d="M73.8405 64.1566L30.5 111.833H92.1761C97.3895 111.833 102.389 109.762 106.076 106.076C109.762 102.389 111.833 97.3894 111.833 92.176V91.4999C111.833 89.131 110.944 88.2211 109.343 86.4674L88.8567 64.1261C87.9019 63.0846 86.7405 62.2536 85.4466 61.686C84.1527 61.1184 82.7548 60.8267 81.3419 60.8296C79.929 60.8325 78.5322 61.1298 77.2406 61.7027C75.949 62.2755 74.791 63.1113 73.8405 64.1566V64.1566Z" stroke="black" stroke-width="2" stroke-linecap="round" stroke-linejoin="round"/>
</svg>
